<mxfile host="app.diagrams.net" modified="2023-04-13T22:24:05.524Z" agent="Mozilla/5.0 (X11; Ubuntu; Linux x86_64; rv:109.0) Gecko/20100101 Firefox/111.0" etag="RkB9mlk04_yCMCRG_70P" version="21.1.7">
  <diagram name="Page-1" id="UoKeEZk8qrJiN1z6IXMx">
    <mxGraphModel dx="1362" dy="766" grid="1" gridSize="10" guides="1" tooltips="1" connect="1" arrows="1" fold="1" page="1" pageScale="1" pageWidth="850" pageHeight="1100" math="0" shadow="0">
      <root>
        <mxCell id="0" />
        <mxCell id="1" parent="0" />
        <mxCell id="5Q4gcwFhn1eUK5E1_kNt-127" value="" style="rounded=0;whiteSpace=wrap;html=1;glass=0;fillColor=none;strokeWidth=3;strokeColor=#f57900;" parent="1" vertex="1">
          <mxGeometry x="110" y="270" width="580" height="130" as="geometry" />
        </mxCell>
        <mxCell id="5Q4gcwFhn1eUK5E1_kNt-125" value="" style="rounded=0;whiteSpace=wrap;html=1;glass=0;fillColor=none;strokeWidth=3;strokeColor=#73d216;" parent="1" vertex="1">
          <mxGeometry x="110" y="80" width="580" height="130" as="geometry" />
        </mxCell>
        <mxCell id="5Q4gcwFhn1eUK5E1_kNt-126" value="&lt;b&gt;&lt;font data-font-src=&quot;https://fonts.googleapis.com/css?family=Merienda+One+&quot; style=&quot;font-size: 19px;&quot; face=&quot;Merienda One&quot;&gt;&lt;i&gt;&lt;font style=&quot;font-size: 19px;&quot;&gt;&lt;font style=&quot;font-size: 19px;&quot;&gt;&lt;font style=&quot;font-size: 19px;&quot;&gt;&lt;font style=&quot;font-size: 19px;&quot;&gt;&lt;font style=&quot;font-size: 18px;&quot;&gt;&lt;font style=&quot;font-size: 18px;&quot;&gt;DATA PREPARATION&lt;br&gt;&lt;/font&gt;&lt;/font&gt;&lt;/font&gt;&lt;/font&gt;&lt;/font&gt;&lt;/font&gt;&lt;/i&gt;&lt;/font&gt;&lt;/b&gt;" style="text;html=1;align=center;verticalAlign=middle;resizable=0;points=[];autosize=1;strokeColor=none;fillColor=none;" parent="1" vertex="1">
          <mxGeometry x="110" y="80" width="240" height="40" as="geometry" />
        </mxCell>
        <mxCell id="uEqAPO-9SHNmqftn-ccm-8" style="edgeStyle=orthogonalEdgeStyle;rounded=0;orthogonalLoop=1;jettySize=auto;html=1;entryX=0;entryY=0.5;entryDx=0;entryDy=0;" edge="1" parent="1" source="uEqAPO-9SHNmqftn-ccm-1" target="uEqAPO-9SHNmqftn-ccm-6">
          <mxGeometry relative="1" as="geometry" />
        </mxCell>
        <mxCell id="uEqAPO-9SHNmqftn-ccm-1" value="&lt;div&gt;&lt;b&gt;&lt;font data-font-src=&quot;https://fonts.googleapis.com/css?family=Berkshire+Swash&quot; style=&quot;font-size: 13px;&quot; face=&quot;Verdana&quot;&gt;&lt;i&gt;&lt;font style=&quot;font-size: 14px;&quot;&gt;&lt;font style=&quot;font-size: 15px;&quot;&gt;&lt;font style=&quot;font-size: 16px;&quot;&gt;Data Loading&lt;br&gt;&lt;/font&gt;&lt;/font&gt;&lt;/font&gt;&lt;/i&gt;&lt;/font&gt;&lt;/b&gt;&lt;/div&gt;" style="rounded=1;whiteSpace=wrap;html=1;fillColor=#c8e8c3;strokeColor=#82b366;gradientColor=#73d216;shadow=1;" vertex="1" parent="1">
          <mxGeometry x="160" y="130" width="120" height="60" as="geometry" />
        </mxCell>
        <mxCell id="uEqAPO-9SHNmqftn-ccm-9" style="edgeStyle=orthogonalEdgeStyle;rounded=0;orthogonalLoop=1;jettySize=auto;html=1;entryX=0;entryY=0.5;entryDx=0;entryDy=0;" edge="1" parent="1" source="uEqAPO-9SHNmqftn-ccm-6" target="uEqAPO-9SHNmqftn-ccm-7">
          <mxGeometry relative="1" as="geometry" />
        </mxCell>
        <mxCell id="uEqAPO-9SHNmqftn-ccm-6" value="&lt;div&gt;&lt;font data-font-src=&quot;https://fonts.googleapis.com/css?family=Berkshire+Swash&quot; style=&quot;font-size: 13px;&quot; face=&quot;Verdana&quot;&gt;&lt;i&gt;&lt;font style=&quot;font-size: 14px;&quot;&gt;&lt;font style=&quot;font-size: 15px;&quot;&gt;&lt;font style=&quot;font-size: 16px;&quot;&gt;&lt;b&gt;Error Injection&lt;br&gt;&lt;/b&gt;&lt;/font&gt;&lt;/font&gt;&lt;/font&gt;&lt;/i&gt;&lt;/font&gt;&lt;/div&gt;" style="rounded=1;whiteSpace=wrap;html=1;fillColor=#c8e8c3;strokeColor=#82b366;gradientColor=#73d216;shadow=1;" vertex="1" parent="1">
          <mxGeometry x="342" y="130" width="120" height="60" as="geometry" />
        </mxCell>
        <mxCell id="uEqAPO-9SHNmqftn-ccm-7" value="&lt;div&gt;&lt;font data-font-src=&quot;https://fonts.googleapis.com/css?family=Berkshire+Swash&quot; style=&quot;font-size: 13px;&quot; face=&quot;Verdana&quot;&gt;&lt;i&gt;&lt;font style=&quot;font-size: 14px;&quot;&gt;&lt;font style=&quot;font-size: 15px;&quot;&gt;&lt;font style=&quot;font-size: 16px;&quot;&gt;&lt;b&gt;Data Engineering&lt;br&gt;&lt;/b&gt;&lt;/font&gt;&lt;/font&gt;&lt;/font&gt;&lt;/i&gt;&lt;/font&gt;&lt;/div&gt;" style="rounded=1;whiteSpace=wrap;html=1;fillColor=#c8e8c3;strokeColor=#82b366;gradientColor=#73d216;shadow=1;" vertex="1" parent="1">
          <mxGeometry x="520" y="130" width="120" height="60" as="geometry" />
        </mxCell>
        <mxCell id="uEqAPO-9SHNmqftn-ccm-23" style="edgeStyle=orthogonalEdgeStyle;rounded=0;orthogonalLoop=1;jettySize=auto;html=1;entryX=0;entryY=0.5;entryDx=0;entryDy=0;" edge="1" parent="1" source="uEqAPO-9SHNmqftn-ccm-10" target="uEqAPO-9SHNmqftn-ccm-11">
          <mxGeometry relative="1" as="geometry" />
        </mxCell>
        <mxCell id="uEqAPO-9SHNmqftn-ccm-10" value="&lt;div&gt;&lt;font data-font-src=&quot;https://fonts.googleapis.com/css?family=Berkshire+Swash&quot; style=&quot;font-size: 13px;&quot; face=&quot;Verdana&quot;&gt;&lt;i&gt;&lt;font style=&quot;font-size: 14px;&quot;&gt;&lt;font style=&quot;font-size: 15px;&quot;&gt;&lt;font style=&quot;font-size: 16px;&quot;&gt;&lt;b&gt;Models Training&lt;br&gt;&lt;/b&gt;&lt;/font&gt;&lt;/font&gt;&lt;/font&gt;&lt;/i&gt;&lt;/font&gt;&lt;/div&gt;" style="rounded=1;whiteSpace=wrap;html=1;fillColor=#ffe6cc;strokeColor=#d79b00;shadow=1;gradientColor=#f57900;" vertex="1" parent="1">
          <mxGeometry x="220" y="320" width="120" height="60" as="geometry" />
        </mxCell>
        <mxCell id="uEqAPO-9SHNmqftn-ccm-11" value="&lt;div&gt;&lt;font data-font-src=&quot;https://fonts.googleapis.com/css?family=Berkshire+Swash&quot; style=&quot;font-size: 13px;&quot; face=&quot;Verdana&quot;&gt;&lt;i&gt;&lt;font style=&quot;font-size: 14px;&quot;&gt;&lt;font style=&quot;font-size: 15px;&quot;&gt;&lt;font style=&quot;font-size: 16px;&quot;&gt;&lt;b&gt;Models Tuning&lt;/b&gt;&lt;/font&gt;&lt;/font&gt;&lt;/font&gt;&lt;/i&gt;&lt;/font&gt;&lt;/div&gt;" style="rounded=1;whiteSpace=wrap;html=1;fillColor=#ffe6cc;strokeColor=#d79b00;shadow=1;gradientColor=#f57900;" vertex="1" parent="1">
          <mxGeometry x="457" y="320" width="120" height="60" as="geometry" />
        </mxCell>
        <mxCell id="uEqAPO-9SHNmqftn-ccm-13" value="&lt;b&gt;&lt;font data-font-src=&quot;https://fonts.googleapis.com/css?family=Merienda+One+&quot; style=&quot;font-size: 19px;&quot; face=&quot;Merienda One&quot;&gt;&lt;i&gt;&lt;font style=&quot;font-size: 19px;&quot;&gt;&lt;font style=&quot;font-size: 19px;&quot;&gt;&lt;font style=&quot;font-size: 19px;&quot;&gt;&lt;font style=&quot;font-size: 19px;&quot;&gt;&lt;font style=&quot;font-size: 18px;&quot;&gt;&lt;font style=&quot;font-size: 18px;&quot;&gt;MODELS PREPARATION&lt;br&gt;&lt;/font&gt;&lt;/font&gt;&lt;/font&gt;&lt;/font&gt;&lt;/font&gt;&lt;/font&gt;&lt;/i&gt;&lt;/font&gt;&lt;/b&gt;" style="text;html=1;align=center;verticalAlign=middle;resizable=0;points=[];autosize=1;strokeColor=none;fillColor=none;" vertex="1" parent="1">
          <mxGeometry x="110" y="270" width="270" height="40" as="geometry" />
        </mxCell>
        <mxCell id="uEqAPO-9SHNmqftn-ccm-21" value="" style="shape=mxgraph.arrows.arrow_down;html=1;verticalLabelPosition=bottom;verticalAlign=top;strokeWidth=2;strokeColor=#82b366;fillColor=#d5e8d4;" vertex="1" parent="1">
          <mxGeometry x="367" y="220" width="70" height="40" as="geometry" />
        </mxCell>
        <mxCell id="uEqAPO-9SHNmqftn-ccm-27" value="" style="rounded=0;whiteSpace=wrap;html=1;glass=0;fillColor=none;strokeWidth=3;strokeColor=#729fcf;" vertex="1" parent="1">
          <mxGeometry x="110" y="460" width="580" height="130" as="geometry" />
        </mxCell>
        <mxCell id="uEqAPO-9SHNmqftn-ccm-25" value="&lt;div&gt;&lt;font data-font-src=&quot;https://fonts.googleapis.com/css?family=Berkshire+Swash&quot; style=&quot;font-size: 13px;&quot; face=&quot;Verdana&quot;&gt;&lt;i&gt;&lt;font style=&quot;font-size: 14px;&quot;&gt;&lt;font style=&quot;font-size: 15px;&quot;&gt;&lt;font style=&quot;font-size: 16px;&quot;&gt;&lt;b&gt;Visualization&lt;/b&gt;&lt;/font&gt;&lt;/font&gt;&lt;/font&gt;&lt;/i&gt;&lt;/font&gt;&lt;/div&gt;" style="rounded=1;whiteSpace=wrap;html=1;fillColor=#dae8fc;strokeColor=#6c8ebf;shadow=1;gradientColor=#729fcf;" vertex="1" parent="1">
          <mxGeometry x="452" y="510" width="130" height="60" as="geometry" />
        </mxCell>
        <mxCell id="uEqAPO-9SHNmqftn-ccm-30" style="edgeStyle=orthogonalEdgeStyle;rounded=0;orthogonalLoop=1;jettySize=auto;html=1;entryX=0;entryY=0.5;entryDx=0;entryDy=0;" edge="1" parent="1" source="uEqAPO-9SHNmqftn-ccm-26" target="uEqAPO-9SHNmqftn-ccm-25">
          <mxGeometry relative="1" as="geometry" />
        </mxCell>
        <mxCell id="uEqAPO-9SHNmqftn-ccm-26" value="&lt;div&gt;&lt;font data-font-src=&quot;https://fonts.googleapis.com/css?family=Berkshire+Swash&quot; style=&quot;font-size: 13px;&quot; face=&quot;Verdana&quot;&gt;&lt;i&gt;&lt;font style=&quot;font-size: 14px;&quot;&gt;&lt;font style=&quot;font-size: 15px;&quot;&gt;&lt;font style=&quot;font-size: 16px;&quot;&gt;&lt;b&gt;Metrics Computation&lt;br&gt;&lt;/b&gt;&lt;/font&gt;&lt;/font&gt;&lt;/font&gt;&lt;/i&gt;&lt;/font&gt;&lt;/div&gt;" style="rounded=1;whiteSpace=wrap;html=1;fillColor=#dae8fc;strokeColor=#6c8ebf;shadow=1;gradientColor=#729fcf;" vertex="1" parent="1">
          <mxGeometry x="215" y="510" width="130" height="60" as="geometry" />
        </mxCell>
        <mxCell id="uEqAPO-9SHNmqftn-ccm-28" value="" style="shape=mxgraph.arrows.arrow_down;html=1;verticalLabelPosition=bottom;verticalAlign=top;strokeWidth=2;strokeColor=#d79b00;fillColor=#ffe6cc;" vertex="1" parent="1">
          <mxGeometry x="365" y="410" width="70" height="40" as="geometry" />
        </mxCell>
        <mxCell id="uEqAPO-9SHNmqftn-ccm-29" value="&lt;b&gt;&lt;font data-font-src=&quot;https://fonts.googleapis.com/css?family=Merienda+One+&quot; style=&quot;font-size: 19px;&quot; face=&quot;Merienda One&quot;&gt;&lt;i&gt;&lt;font style=&quot;font-size: 19px;&quot;&gt;&lt;font style=&quot;font-size: 19px;&quot;&gt;&lt;font style=&quot;font-size: 19px;&quot;&gt;&lt;font style=&quot;font-size: 19px;&quot;&gt;&lt;font style=&quot;font-size: 18px;&quot;&gt;&lt;font style=&quot;font-size: 18px;&quot;&gt;MODELS AUDIT&lt;/font&gt;&lt;/font&gt;&lt;/font&gt;&lt;/font&gt;&lt;/font&gt;&lt;/font&gt;&lt;/i&gt;&lt;/font&gt;&lt;/b&gt;" style="text;html=1;align=center;verticalAlign=middle;resizable=0;points=[];autosize=1;strokeColor=none;fillColor=none;" vertex="1" parent="1">
          <mxGeometry x="110" y="460" width="190" height="40" as="geometry" />
        </mxCell>
      </root>
    </mxGraphModel>
  </diagram>
</mxfile>
